<svg xmlns="http://www.w3.org/2000/svg" viewBox="0 0 34.02 27.02"><defs><style>.cls-1{fill:#fff;}</style></defs><title>-home- (4)</title><g id="Слой_2" data-name="Слой 2"><g id="Слой_1-2" data-name="Слой 1"><g id="_home_" data-name="&lt;home&gt;"><g id="_tarifs_ethernet_" data-name="&lt;tarifs ethernet&gt;"><g id="_Группа_" data-name="&lt;Группа&gt;"><path class="cls-1" d="M32.12,27H1.91A1.91,1.91,0,0,1,0,25.11V1.91A1.91,1.91,0,0,1,1.91,0H32.12A1.91,1.91,0,0,1,34,1.91v23.2A1.91,1.91,0,0,1,32.12,27ZM1.91,1A.91.91,0,0,0,1,1.91v23.2a.91.91,0,0,0,.91.91H32.12a.9.9,0,0,0,.9-.91V1.91a.9.9,0,0,0-.9-.91Z"/><path class="cls-1" d="M10.29,5V2.36h2.29V5Zm0,16V7.51h2.29V21Z"/><path class="cls-1" d="M15.42,26.22V7.51h2.09V9.26a5.14,5.14,0,0,1,1.67-1.54,4.51,4.51,0,0,1,2.25-.52,5.37,5.37,0,0,1,3.06.89,5.55,5.55,0,0,1,2,2.52,9.18,9.18,0,0,1,.68,3.56,9,9,0,0,1-.75,3.74,5.66,5.66,0,0,1-2.16,2.55,5.58,5.58,0,0,1-3,.88,4.35,4.35,0,0,1-2.06-.48,4.68,4.68,0,0,1-1.5-1.23v6.59ZM17.5,14.35a5.91,5.91,0,0,0,1.05,3.86,3.26,3.26,0,0,0,2.56,1.25,3.32,3.32,0,0,0,2.62-1.3,6.11,6.11,0,0,0,1.09-4,6,6,0,0,0-1.06-3.88A3.22,3.22,0,0,0,21.22,9a3.3,3.3,0,0,0-2.6,1.37A6.13,6.13,0,0,0,17.5,14.35Z"/></g></g></g></g></g></svg>